<?xml version="1.0" encoding="UTF-8"?>
<svg width="256" height="64" version="1.1" viewBox="0 0 67.733 16.933" xmlns="http://www.w3.org/2000/svg">
 <g transform="translate(0 -280.07)">
  <g transform="matrix(1.244 0 0 1.244 -7.5045 -38.55)">
   <g fill="#500">
    <path d="m9.7005 265.85v2.4753h-0.98185v-7.705h0.98185v0.45475q0.55811-0.55811 1.3488-0.55811 1.1782 0 1.8345 0.73381 0.65629 0.7338 0.65629 2.1497 0 1.2609-0.66146 2.0619-0.66146 0.79582-1.912 0.79582-0.3514 0-0.75448-0.12403-0.39791-0.12402-0.5116-0.28422zm0-4.0359v3.2246q0.093018 0.13953 0.39274 0.26872 0.29972 0.12402 0.58394 0.12402 1.8293 0 1.8293-2.067 0-1.049-0.43408-1.5348-0.43408-0.48576-1.3901-0.48576-0.2067 0-0.50643 0.14469-0.29972 0.1447-0.47542 0.32556z"/>
    <path d="m17.736 265.51q-0.58911 0.73898-1.8035 0.73898-0.65112 0-1.1317-0.47026-0.47542-0.47542-0.47542-1.1782 0-0.84233 0.7338-1.4211 0.73897-0.58395 1.881-0.58395 0.31006 0 0.7028 0.13436 0-1.3436-1.1989-1.3436-0.91984 0-1.4159 0.4961l-0.41341-0.82166q0.27905-0.22737 0.76998-0.38757 0.49609-0.16537 0.94568-0.16537 1.2041 0 1.7467 0.54777 0.54777 0.54777 0.54777 1.7415v1.9844q0 0.72863 0.43408 0.97151v0.49093q-0.59945 0-0.89917-0.17053-0.29456-0.17054-0.42375-0.56328zm-0.09302-2.0826q-0.46509-0.10335-0.65112-0.10335-0.74414 0-1.2144 0.38241-0.47026 0.3824-0.47026 0.90433 0 0.863 1.018 0.863 0.74414 0 1.3177-0.70797z"/>
    <path d="m25.286 266.25h-0.25838l-1.6226-3.7672-1.6175 3.7672h-0.25838l-1.9792-5.6534h1.049l1.1834 3.6329 1.4728-3.6329h0.25838l1.5193 3.6329 1.2712-3.6329h0.96635z"/>
   </g>
   <path d="m33.146 266.15v-3.2194c0-0.58911-0.08957-1.0008-0.26872-1.2351-0.1757-0.23771-0.47198-0.35656-0.88884-0.35656-0.22393 0-0.4582 0.0672-0.7028 0.20154-0.2446 0.13435-0.43236 0.29972-0.56327 0.49609v4.1134h-0.98185l0.05784-3.4136c-0.05226-1.5144 1.0131-1.8352 1.1854-1.9542 0.17227-0.11891 1.5449-0.347 1.9679-0.1164 0.42293 0.23059 1.1762 0.58348 1.1762 2.058v3.4261z" fill="#333"/>
   <g fill="#008">
    <path d="m36.862 265.82 0.34623-0.93017q0.82166 0.53743 1.3229 0.53743 0.9095 0 0.9095-0.76481 0-0.54777-0.8785-0.94051-0.67696-0.31006-0.91467-0.47025-0.23254-0.1602-0.40824-0.36174-0.17053-0.20671-0.25838-0.43408-0.08268-0.23255-0.08268-0.4961 0-0.68212 0.49609-1.0645t1.2971-0.38241q0.60462 0 1.5245 0.38241l-0.27905 0.90951q-0.58394-0.46509-1.1731-0.46509-0.3514 0-0.59428 0.16536-0.23771 0.16537-0.23771 0.41858 0 0.53227 0.60461 0.80615l0.7028 0.3204q0.64596 0.29455 0.94051 0.67179 0.29456 0.37724 0.29456 0.94568 0 0.74414-0.52193 1.1679-0.52193 0.41858-1.4469 0.41858-0.87333 0-1.6433-0.43409z"/>
    <path d="m44.913 266.15v-3.4778q0-0.62012-0.30489-0.97669-0.30489-0.35656-0.85783-0.35656-0.35657 0-0.7183 0.21187-0.35657 0.20671-0.54777 0.48576v4.1134h-0.98185v-7.8031h0.98185v2.8784q0.19637-0.30489 0.63045-0.50643 0.43925-0.20671 0.90434-0.20671 0.8785 0 1.3746 0.57878 0.50126 0.57878 0.50126 1.5813v3.4778z"/>
    <path d="m46.928 263.37q0-1.2816 0.6873-2.0671 0.69246-0.79065 1.819-0.79065 1.1886 0 1.8448 0.75965 0.65629 0.75447 0.65629 2.0981 0 1.3384-0.67179 2.1136-0.67179 0.76998-1.8293 0.76998-1.1834 0-1.8448-0.78032-0.66146-0.78031-0.66146-2.1032zm1.0335 0q0 2.0826 1.4728 2.0826 0.6873 0 1.0749-0.5581 0.39274-0.55811 0.39274-1.5245 0-2.0567-1.4676-2.0567-0.67179 0-1.0749 0.54777-0.39791 0.54777-0.39791 1.509z"/>
    <path d="m53.956 265.85v2.4753h-0.98185v-7.705h0.98185v0.45475q0.5581-0.55811 1.3488-0.55811 1.1782 0 1.8345 0.73381 0.65629 0.7338 0.65629 2.1497 0 1.2609-0.66146 2.0619-0.66146 0.79582-1.912 0.79582-0.3514 0-0.75448-0.12403-0.39791-0.12402-0.5116-0.28422zm0-4.0359v3.2246q0.09302 0.13953 0.39274 0.26872 0.29972 0.12402 0.58394 0.12402 1.8293 0 1.8293-2.067 0-1.049-0.43408-1.5348-0.43408-0.48576-1.3901-0.48576-0.20671 0-0.50643 0.14469-0.29972 0.1447-0.47542 0.32556z"/>
   </g>
   <g fill="#333">
    <path d="m32.428 259.73h-0.6873c-0.20448-0.1429-0.61269-1.29-0.12402-1.9689 0.34056-0.25971 0.66163-0.30511 0.95085 0 0.20862 0.77581 0.40729 1.4794-0.13953 1.9689z"/>
    <path d="m35.127 261.04h-0.6873c-0.20448-0.1429-0.61269-1.29-0.12402-1.9689 0.34056-0.25971 0.66163-0.30511 0.95085 0 0.20862 0.77581 0.40729 1.4794-0.13953 1.9689z"/>
    <path d="m35.127 261.04h-0.6873c-0.20448-0.1429-0.61269-1.29-0.12402-1.9689 0.34056-0.25971 0.66163-0.30511 0.95085 0 0.20862 0.77581 0.40729 1.4794-0.13953 1.9689z"/>
    <path d="m29.516 260.9h-0.6873c-0.20448-0.1429-0.61269-1.29-0.12402-1.9689 0.34056-0.25971 0.66163-0.30511 0.95085 0 0.20862 0.77581 0.40729 1.4794-0.13953 1.9689z"/>
   </g>
  </g>
 </g>
</svg>
